<mxfile host="app.diagrams.net" modified="2023-10-15T10:18:28.455Z" agent="Mozilla/5.0 (Windows NT 10.0; Win64; x64) AppleWebKit/537.36 (KHTML, like Gecko) Chrome/117.0.0.0 Safari/537.36" etag="yuMVkpJHZ9HK002cm87J" version="22.0.4" type="github" pages="4">
  <diagram name="塔防流程" id="sQgyZbZPZzN1loecq5ZB">
    <mxGraphModel dx="989" dy="523" grid="1" gridSize="10" guides="1" tooltips="1" connect="1" arrows="1" fold="1" page="1" pageScale="1" pageWidth="827" pageHeight="1169" math="0" shadow="0">
      <root>
        <mxCell id="0" />
        <mxCell id="1" parent="0" />
        <mxCell id="Mb3JNkvD9RwBQrOQgSte-3" style="edgeStyle=orthogonalEdgeStyle;rounded=0;orthogonalLoop=1;jettySize=auto;html=1;entryX=0.5;entryY=0;entryDx=0;entryDy=0;" parent="1" source="Mb3JNkvD9RwBQrOQgSte-1" target="Mb3JNkvD9RwBQrOQgSte-2" edge="1">
          <mxGeometry relative="1" as="geometry" />
        </mxCell>
        <mxCell id="Mb3JNkvD9RwBQrOQgSte-1" value="部屬階段" style="rounded=1;whiteSpace=wrap;html=1;" parent="1" vertex="1">
          <mxGeometry x="360" y="40" width="120" height="60" as="geometry" />
        </mxCell>
        <mxCell id="uXsXxFFfuSwUhHu3yABZ-9" style="edgeStyle=orthogonalEdgeStyle;rounded=0;orthogonalLoop=1;jettySize=auto;html=1;exitX=0.5;exitY=1;exitDx=0;exitDy=0;" parent="1" source="Mb3JNkvD9RwBQrOQgSte-2" target="uXsXxFFfuSwUhHu3yABZ-8" edge="1">
          <mxGeometry relative="1" as="geometry" />
        </mxCell>
        <mxCell id="uXsXxFFfuSwUhHu3yABZ-11" style="edgeStyle=orthogonalEdgeStyle;rounded=0;orthogonalLoop=1;jettySize=auto;html=1;exitX=0.5;exitY=1;exitDx=0;exitDy=0;entryX=0.5;entryY=0;entryDx=0;entryDy=0;" parent="1" source="Mb3JNkvD9RwBQrOQgSte-2" target="Mb3JNkvD9RwBQrOQgSte-55" edge="1">
          <mxGeometry relative="1" as="geometry" />
        </mxCell>
        <mxCell id="Mb3JNkvD9RwBQrOQgSte-2" value="波次防守開始" style="rounded=1;whiteSpace=wrap;html=1;" parent="1" vertex="1">
          <mxGeometry x="360" y="160" width="120" height="60" as="geometry" />
        </mxCell>
        <mxCell id="Mb3JNkvD9RwBQrOQgSte-53" style="edgeStyle=orthogonalEdgeStyle;rounded=0;orthogonalLoop=1;jettySize=auto;html=1;exitX=0.5;exitY=1;exitDx=0;exitDy=0;entryX=1;entryY=0.5;entryDx=0;entryDy=0;" parent="1" source="Mb3JNkvD9RwBQrOQgSte-5" target="Mb3JNkvD9RwBQrOQgSte-45" edge="1">
          <mxGeometry relative="1" as="geometry" />
        </mxCell>
        <mxCell id="Mb3JNkvD9RwBQrOQgSte-5" value="無隨機事件&lt;br&gt;30%" style="rounded=1;whiteSpace=wrap;html=1;" parent="1" vertex="1">
          <mxGeometry x="860" y="570" width="120" height="60" as="geometry" />
        </mxCell>
        <mxCell id="uXsXxFFfuSwUhHu3yABZ-2" style="edgeStyle=orthogonalEdgeStyle;rounded=0;orthogonalLoop=1;jettySize=auto;html=1;exitX=0.5;exitY=1;exitDx=0;exitDy=0;entryX=0.5;entryY=0;entryDx=0;entryDy=0;" parent="1" source="Mb3JNkvD9RwBQrOQgSte-12" target="Mb3JNkvD9RwBQrOQgSte-45" edge="1">
          <mxGeometry relative="1" as="geometry" />
        </mxCell>
        <mxCell id="Mb3JNkvD9RwBQrOQgSte-12" value="Boss事件&lt;br&gt;35%" style="rounded=1;whiteSpace=wrap;html=1;" parent="1" vertex="1">
          <mxGeometry x="680" y="570" width="120" height="60" as="geometry" />
        </mxCell>
        <mxCell id="Mb3JNkvD9RwBQrOQgSte-41" style="edgeStyle=orthogonalEdgeStyle;rounded=0;orthogonalLoop=1;jettySize=auto;html=1;exitX=0.5;exitY=1;exitDx=0;exitDy=0;entryX=0.5;entryY=0;entryDx=0;entryDy=0;" parent="1" target="Mb3JNkvD9RwBQrOQgSte-39" edge="1">
          <mxGeometry relative="1" as="geometry">
            <mxPoint x="420" y="470" as="sourcePoint" />
          </mxGeometry>
        </mxCell>
        <mxCell id="Mb3JNkvD9RwBQrOQgSte-42" style="edgeStyle=orthogonalEdgeStyle;rounded=0;orthogonalLoop=1;jettySize=auto;html=1;exitX=0.5;exitY=1;exitDx=0;exitDy=0;entryX=0.5;entryY=0;entryDx=0;entryDy=0;" parent="1" target="Mb3JNkvD9RwBQrOQgSte-40" edge="1">
          <mxGeometry relative="1" as="geometry">
            <mxPoint x="420" y="470" as="sourcePoint" />
          </mxGeometry>
        </mxCell>
        <mxCell id="Mb3JNkvD9RwBQrOQgSte-44" style="edgeStyle=orthogonalEdgeStyle;rounded=0;orthogonalLoop=1;jettySize=auto;html=1;exitX=0.5;exitY=1;exitDx=0;exitDy=0;" parent="1" target="Mb3JNkvD9RwBQrOQgSte-43" edge="1">
          <mxGeometry relative="1" as="geometry">
            <mxPoint x="420" y="470" as="sourcePoint" />
          </mxGeometry>
        </mxCell>
        <mxCell id="uXsXxFFfuSwUhHu3yABZ-1" style="edgeStyle=orthogonalEdgeStyle;rounded=0;orthogonalLoop=1;jettySize=auto;html=1;exitX=0.5;exitY=1;exitDx=0;exitDy=0;" parent="1" target="Mb3JNkvD9RwBQrOQgSte-12" edge="1">
          <mxGeometry relative="1" as="geometry">
            <mxPoint x="420" y="470" as="sourcePoint" />
          </mxGeometry>
        </mxCell>
        <mxCell id="Mb3JNkvD9RwBQrOQgSte-50" style="edgeStyle=orthogonalEdgeStyle;rounded=0;orthogonalLoop=1;jettySize=auto;html=1;exitX=0.5;exitY=1;exitDx=0;exitDy=0;entryX=0.5;entryY=0;entryDx=0;entryDy=0;" parent="1" source="Mb3JNkvD9RwBQrOQgSte-39" target="Mb3JNkvD9RwBQrOQgSte-45" edge="1">
          <mxGeometry relative="1" as="geometry" />
        </mxCell>
        <mxCell id="Mb3JNkvD9RwBQrOQgSte-39" value="強化or削弱我方&lt;br&gt;10%" style="rounded=1;whiteSpace=wrap;html=1;" parent="1" vertex="1">
          <mxGeometry x="200" y="570" width="120" height="60" as="geometry" />
        </mxCell>
        <mxCell id="uXsXxFFfuSwUhHu3yABZ-15" style="edgeStyle=orthogonalEdgeStyle;rounded=0;orthogonalLoop=1;jettySize=auto;html=1;exitX=0.5;exitY=1;exitDx=0;exitDy=0;entryX=0.5;entryY=0;entryDx=0;entryDy=0;" parent="1" source="Mb3JNkvD9RwBQrOQgSte-40" target="Mb3JNkvD9RwBQrOQgSte-45" edge="1">
          <mxGeometry relative="1" as="geometry" />
        </mxCell>
        <mxCell id="Mb3JNkvD9RwBQrOQgSte-40" value="強化or削弱敵人&lt;br&gt;10%" style="rounded=1;whiteSpace=wrap;html=1;" parent="1" vertex="1">
          <mxGeometry x="360" y="570" width="120" height="60" as="geometry" />
        </mxCell>
        <mxCell id="uXsXxFFfuSwUhHu3yABZ-16" style="edgeStyle=orthogonalEdgeStyle;rounded=0;orthogonalLoop=1;jettySize=auto;html=1;exitX=0.5;exitY=1;exitDx=0;exitDy=0;" parent="1" source="Mb3JNkvD9RwBQrOQgSte-43" edge="1">
          <mxGeometry relative="1" as="geometry">
            <mxPoint x="420" y="820" as="targetPoint" />
          </mxGeometry>
        </mxCell>
        <mxCell id="Mb3JNkvD9RwBQrOQgSte-43" value="特殊道具&lt;br&gt;15%" style="rounded=1;whiteSpace=wrap;html=1;" parent="1" vertex="1">
          <mxGeometry x="520" y="570" width="120" height="60" as="geometry" />
        </mxCell>
        <mxCell id="uXsXxFFfuSwUhHu3yABZ-17" style="edgeStyle=orthogonalEdgeStyle;rounded=0;orthogonalLoop=1;jettySize=auto;html=1;exitX=0;exitY=0.5;exitDx=0;exitDy=0;entryX=0;entryY=0.5;entryDx=0;entryDy=0;" parent="1" source="Mb3JNkvD9RwBQrOQgSte-45" target="Mb3JNkvD9RwBQrOQgSte-2" edge="1">
          <mxGeometry relative="1" as="geometry">
            <Array as="points">
              <mxPoint x="170" y="850" />
              <mxPoint x="170" y="190" />
            </Array>
          </mxGeometry>
        </mxCell>
        <mxCell id="uXsXxFFfuSwUhHu3yABZ-18" style="edgeStyle=orthogonalEdgeStyle;rounded=0;orthogonalLoop=1;jettySize=auto;html=1;exitX=0.5;exitY=1;exitDx=0;exitDy=0;entryX=0.5;entryY=0;entryDx=0;entryDy=0;" parent="1" source="Mb3JNkvD9RwBQrOQgSte-45" target="uXsXxFFfuSwUhHu3yABZ-6" edge="1">
          <mxGeometry relative="1" as="geometry" />
        </mxCell>
        <mxCell id="Mb3JNkvD9RwBQrOQgSte-45" value="波次開始前再部屬" style="rounded=1;whiteSpace=wrap;html=1;" parent="1" vertex="1">
          <mxGeometry x="360" y="820" width="120" height="60" as="geometry" />
        </mxCell>
        <mxCell id="uXsXxFFfuSwUhHu3yABZ-12" style="edgeStyle=orthogonalEdgeStyle;rounded=0;orthogonalLoop=1;jettySize=auto;html=1;exitX=1;exitY=0.5;exitDx=0;exitDy=0;entryX=1;entryY=0.5;entryDx=0;entryDy=0;" parent="1" source="Mb3JNkvD9RwBQrOQgSte-55" target="Mb3JNkvD9RwBQrOQgSte-1" edge="1">
          <mxGeometry relative="1" as="geometry" />
        </mxCell>
        <mxCell id="Mb3JNkvD9RwBQrOQgSte-55" value="防守失敗" style="rounded=1;whiteSpace=wrap;html=1;" parent="1" vertex="1">
          <mxGeometry x="530" y="260" width="120" height="60" as="geometry" />
        </mxCell>
        <mxCell id="uXsXxFFfuSwUhHu3yABZ-6" value="波次結束" style="rounded=1;whiteSpace=wrap;html=1;" parent="1" vertex="1">
          <mxGeometry x="360" y="950" width="120" height="60" as="geometry" />
        </mxCell>
        <mxCell id="uXsXxFFfuSwUhHu3yABZ-19" style="edgeStyle=orthogonalEdgeStyle;rounded=0;orthogonalLoop=1;jettySize=auto;html=1;exitX=0.5;exitY=1;exitDx=0;exitDy=0;entryX=0.5;entryY=0;entryDx=0;entryDy=0;" parent="1" source="uXsXxFFfuSwUhHu3yABZ-8" target="Mb3JNkvD9RwBQrOQgSte-40" edge="1">
          <mxGeometry relative="1" as="geometry" />
        </mxCell>
        <mxCell id="uXsXxFFfuSwUhHu3yABZ-20" style="edgeStyle=orthogonalEdgeStyle;rounded=0;orthogonalLoop=1;jettySize=auto;html=1;exitX=0.5;exitY=1;exitDx=0;exitDy=0;entryX=0.5;entryY=0;entryDx=0;entryDy=0;" parent="1" source="uXsXxFFfuSwUhHu3yABZ-8" target="Mb3JNkvD9RwBQrOQgSte-5" edge="1">
          <mxGeometry relative="1" as="geometry">
            <Array as="points">
              <mxPoint x="420" y="470" />
              <mxPoint x="920" y="470" />
            </Array>
          </mxGeometry>
        </mxCell>
        <mxCell id="uXsXxFFfuSwUhHu3yABZ-8" value="防守成功" style="rounded=1;whiteSpace=wrap;html=1;" parent="1" vertex="1">
          <mxGeometry x="360" y="260" width="120" height="60" as="geometry" />
        </mxCell>
      </root>
    </mxGraphModel>
  </diagram>
  <diagram id="M-Cpv5rG9CjofS4hNnuv" name="冒險流程">
    <mxGraphModel dx="1195" dy="632" grid="1" gridSize="10" guides="1" tooltips="1" connect="1" arrows="1" fold="1" page="1" pageScale="1" pageWidth="827" pageHeight="1169" math="0" shadow="0">
      <root>
        <mxCell id="0" />
        <mxCell id="1" parent="0" />
        <mxCell id="I5325HKkL8Ilov2h9OYY-13" style="edgeStyle=orthogonalEdgeStyle;rounded=0;orthogonalLoop=1;jettySize=auto;html=1;exitX=0.5;exitY=1;exitDx=0;exitDy=0;entryX=0.5;entryY=0;entryDx=0;entryDy=0;" edge="1" parent="1" source="mDq2b6kobjIP6DSNH423-1" target="I5325HKkL8Ilov2h9OYY-11">
          <mxGeometry relative="1" as="geometry" />
        </mxCell>
        <mxCell id="mDq2b6kobjIP6DSNH423-1" value="進入初始房" style="rounded=1;whiteSpace=wrap;html=1;" parent="1" vertex="1">
          <mxGeometry x="400" y="40" width="120" height="60" as="geometry" />
        </mxCell>
        <mxCell id="OTVSZYHuspQzRJVzmIoZ-5" style="edgeStyle=orthogonalEdgeStyle;rounded=0;orthogonalLoop=1;jettySize=auto;html=1;exitX=0.5;exitY=1;exitDx=0;exitDy=0;entryX=0.5;entryY=0;entryDx=0;entryDy=0;" parent="1" source="mDq2b6kobjIP6DSNH423-2" target="OTVSZYHuspQzRJVzmIoZ-2" edge="1">
          <mxGeometry relative="1" as="geometry" />
        </mxCell>
        <mxCell id="OTVSZYHuspQzRJVzmIoZ-6" style="edgeStyle=orthogonalEdgeStyle;rounded=0;orthogonalLoop=1;jettySize=auto;html=1;exitX=0.5;exitY=1;exitDx=0;exitDy=0;" parent="1" source="mDq2b6kobjIP6DSNH423-2" target="OTVSZYHuspQzRJVzmIoZ-4" edge="1">
          <mxGeometry relative="1" as="geometry" />
        </mxCell>
        <mxCell id="I5325HKkL8Ilov2h9OYY-4" style="edgeStyle=orthogonalEdgeStyle;rounded=0;orthogonalLoop=1;jettySize=auto;html=1;exitX=0.5;exitY=1;exitDx=0;exitDy=0;entryX=0.5;entryY=0;entryDx=0;entryDy=0;" edge="1" parent="1" source="mDq2b6kobjIP6DSNH423-2" target="I5325HKkL8Ilov2h9OYY-1">
          <mxGeometry relative="1" as="geometry" />
        </mxCell>
        <mxCell id="I5325HKkL8Ilov2h9OYY-6" style="edgeStyle=orthogonalEdgeStyle;rounded=0;orthogonalLoop=1;jettySize=auto;html=1;exitX=0.5;exitY=1;exitDx=0;exitDy=0;" edge="1" parent="1" source="mDq2b6kobjIP6DSNH423-2" target="I5325HKkL8Ilov2h9OYY-3">
          <mxGeometry relative="1" as="geometry" />
        </mxCell>
        <mxCell id="I5325HKkL8Ilov2h9OYY-10" style="edgeStyle=orthogonalEdgeStyle;rounded=0;orthogonalLoop=1;jettySize=auto;html=1;exitX=0.5;exitY=1;exitDx=0;exitDy=0;" edge="1" parent="1" source="mDq2b6kobjIP6DSNH423-2" target="I5325HKkL8Ilov2h9OYY-9">
          <mxGeometry relative="1" as="geometry" />
        </mxCell>
        <mxCell id="mDq2b6kobjIP6DSNH423-2" value="進行地圖隨機生成" style="rounded=1;whiteSpace=wrap;html=1;" parent="1" vertex="1">
          <mxGeometry x="400" y="290" width="120" height="60" as="geometry" />
        </mxCell>
        <mxCell id="I5325HKkL8Ilov2h9OYY-26" style="edgeStyle=orthogonalEdgeStyle;rounded=0;orthogonalLoop=1;jettySize=auto;html=1;exitX=0.5;exitY=1;exitDx=0;exitDy=0;entryX=0.5;entryY=0;entryDx=0;entryDy=0;" edge="1" parent="1" source="OTVSZYHuspQzRJVzmIoZ-2" target="I5325HKkL8Ilov2h9OYY-14">
          <mxGeometry relative="1" as="geometry" />
        </mxCell>
        <mxCell id="OTVSZYHuspQzRJVzmIoZ-2" value="怪物房" style="rounded=1;whiteSpace=wrap;html=1;" parent="1" vertex="1">
          <mxGeometry x="330" y="410" width="120" height="60" as="geometry" />
        </mxCell>
        <mxCell id="I5325HKkL8Ilov2h9OYY-41" style="edgeStyle=orthogonalEdgeStyle;rounded=0;orthogonalLoop=1;jettySize=auto;html=1;exitX=0.5;exitY=1;exitDx=0;exitDy=0;entryX=0.5;entryY=0;entryDx=0;entryDy=0;" edge="1" parent="1" source="OTVSZYHuspQzRJVzmIoZ-3" target="I5325HKkL8Ilov2h9OYY-40">
          <mxGeometry relative="1" as="geometry" />
        </mxCell>
        <mxCell id="I5325HKkL8Ilov2h9OYY-42" style="edgeStyle=orthogonalEdgeStyle;rounded=0;orthogonalLoop=1;jettySize=auto;html=1;exitX=0.5;exitY=1;exitDx=0;exitDy=0;" edge="1" parent="1" source="OTVSZYHuspQzRJVzmIoZ-3" target="I5325HKkL8Ilov2h9OYY-39">
          <mxGeometry relative="1" as="geometry" />
        </mxCell>
        <mxCell id="OTVSZYHuspQzRJVzmIoZ-3" value="物資房" style="rounded=1;whiteSpace=wrap;html=1;" parent="1" vertex="1">
          <mxGeometry x="520" y="850" width="120" height="60" as="geometry" />
        </mxCell>
        <mxCell id="I5325HKkL8Ilov2h9OYY-24" style="edgeStyle=orthogonalEdgeStyle;rounded=0;orthogonalLoop=1;jettySize=auto;html=1;exitX=0.5;exitY=1;exitDx=0;exitDy=0;" edge="1" parent="1" source="OTVSZYHuspQzRJVzmIoZ-4">
          <mxGeometry relative="1" as="geometry">
            <mxPoint x="580" y="610" as="targetPoint" />
          </mxGeometry>
        </mxCell>
        <mxCell id="OTVSZYHuspQzRJVzmIoZ-4" value="獎勵房" style="rounded=1;whiteSpace=wrap;html=1;" parent="1" vertex="1">
          <mxGeometry x="750" y="410" width="120" height="60" as="geometry" />
        </mxCell>
        <mxCell id="I5325HKkL8Ilov2h9OYY-30" style="edgeStyle=orthogonalEdgeStyle;rounded=0;orthogonalLoop=1;jettySize=auto;html=1;exitX=0.5;exitY=1;exitDx=0;exitDy=0;entryX=0.5;entryY=0;entryDx=0;entryDy=0;" edge="1" parent="1" source="I5325HKkL8Ilov2h9OYY-1" target="I5325HKkL8Ilov2h9OYY-14">
          <mxGeometry relative="1" as="geometry" />
        </mxCell>
        <mxCell id="I5325HKkL8Ilov2h9OYY-1" value="菁英房" style="rounded=1;whiteSpace=wrap;html=1;" vertex="1" parent="1">
          <mxGeometry x="470" y="410" width="120" height="60" as="geometry" />
        </mxCell>
        <mxCell id="I5325HKkL8Ilov2h9OYY-43" style="edgeStyle=orthogonalEdgeStyle;rounded=0;orthogonalLoop=1;jettySize=auto;html=1;exitX=0.5;exitY=1;exitDx=0;exitDy=0;entryX=0.5;entryY=0;entryDx=0;entryDy=0;" edge="1" parent="1" source="I5325HKkL8Ilov2h9OYY-2" target="I5325HKkL8Ilov2h9OYY-40">
          <mxGeometry relative="1" as="geometry" />
        </mxCell>
        <mxCell id="I5325HKkL8Ilov2h9OYY-2" value="BOSS房" style="rounded=1;whiteSpace=wrap;html=1;" vertex="1" parent="1">
          <mxGeometry x="380" y="850" width="120" height="60" as="geometry" />
        </mxCell>
        <mxCell id="I5325HKkL8Ilov2h9OYY-23" style="edgeStyle=orthogonalEdgeStyle;rounded=0;orthogonalLoop=1;jettySize=auto;html=1;exitX=0.5;exitY=1;exitDx=0;exitDy=0;entryX=0.5;entryY=0;entryDx=0;entryDy=0;" edge="1" parent="1" source="I5325HKkL8Ilov2h9OYY-3" target="I5325HKkL8Ilov2h9OYY-15">
          <mxGeometry relative="1" as="geometry" />
        </mxCell>
        <mxCell id="I5325HKkL8Ilov2h9OYY-27" style="edgeStyle=orthogonalEdgeStyle;rounded=0;orthogonalLoop=1;jettySize=auto;html=1;exitX=0.5;exitY=1;exitDx=0;exitDy=0;entryX=0.5;entryY=0;entryDx=0;entryDy=0;" edge="1" parent="1" source="I5325HKkL8Ilov2h9OYY-3" target="I5325HKkL8Ilov2h9OYY-14">
          <mxGeometry relative="1" as="geometry" />
        </mxCell>
        <mxCell id="I5325HKkL8Ilov2h9OYY-3" value="救援房" style="rounded=1;whiteSpace=wrap;html=1;" vertex="1" parent="1">
          <mxGeometry x="610" y="410" width="120" height="60" as="geometry" />
        </mxCell>
        <mxCell id="I5325HKkL8Ilov2h9OYY-44" style="edgeStyle=orthogonalEdgeStyle;rounded=0;orthogonalLoop=1;jettySize=auto;html=1;exitX=0.5;exitY=1;exitDx=0;exitDy=0;entryX=0.5;entryY=0;entryDx=0;entryDy=0;" edge="1" parent="1" source="I5325HKkL8Ilov2h9OYY-7" target="I5325HKkL8Ilov2h9OYY-39">
          <mxGeometry relative="1" as="geometry" />
        </mxCell>
        <mxCell id="I5325HKkL8Ilov2h9OYY-7" value="隱藏房" style="rounded=1;whiteSpace=wrap;html=1;" vertex="1" parent="1">
          <mxGeometry x="240" y="850" width="120" height="60" as="geometry" />
        </mxCell>
        <mxCell id="I5325HKkL8Ilov2h9OYY-29" style="edgeStyle=orthogonalEdgeStyle;rounded=0;orthogonalLoop=1;jettySize=auto;html=1;exitX=0.5;exitY=1;exitDx=0;exitDy=0;entryX=0.5;entryY=0;entryDx=0;entryDy=0;" edge="1" parent="1" source="I5325HKkL8Ilov2h9OYY-9" target="I5325HKkL8Ilov2h9OYY-14">
          <mxGeometry relative="1" as="geometry" />
        </mxCell>
        <mxCell id="I5325HKkL8Ilov2h9OYY-9" value="強化房" style="rounded=1;whiteSpace=wrap;html=1;" vertex="1" parent="1">
          <mxGeometry x="190" y="410" width="120" height="60" as="geometry" />
        </mxCell>
        <mxCell id="I5325HKkL8Ilov2h9OYY-12" style="edgeStyle=orthogonalEdgeStyle;rounded=0;orthogonalLoop=1;jettySize=auto;html=1;exitX=0.5;exitY=1;exitDx=0;exitDy=0;" edge="1" parent="1" source="I5325HKkL8Ilov2h9OYY-11" target="mDq2b6kobjIP6DSNH423-2">
          <mxGeometry relative="1" as="geometry" />
        </mxCell>
        <mxCell id="I5325HKkL8Ilov2h9OYY-11" value="進入傳送門" style="rounded=1;whiteSpace=wrap;html=1;" vertex="1" parent="1">
          <mxGeometry x="400" y="170" width="120" height="60" as="geometry" />
        </mxCell>
        <mxCell id="I5325HKkL8Ilov2h9OYY-35" style="edgeStyle=orthogonalEdgeStyle;rounded=0;orthogonalLoop=1;jettySize=auto;html=1;exitX=0.5;exitY=1;exitDx=0;exitDy=0;entryX=0;entryY=0.5;entryDx=0;entryDy=0;" edge="1" parent="1" source="I5325HKkL8Ilov2h9OYY-14" target="mDq2b6kobjIP6DSNH423-2">
          <mxGeometry relative="1" as="geometry">
            <Array as="points">
              <mxPoint x="440" y="690" />
              <mxPoint x="160" y="690" />
              <mxPoint x="160" y="320" />
            </Array>
          </mxGeometry>
        </mxCell>
        <mxCell id="I5325HKkL8Ilov2h9OYY-36" style="edgeStyle=orthogonalEdgeStyle;rounded=0;orthogonalLoop=1;jettySize=auto;html=1;exitX=0.5;exitY=1;exitDx=0;exitDy=0;" edge="1" parent="1" source="I5325HKkL8Ilov2h9OYY-14" target="OTVSZYHuspQzRJVzmIoZ-3">
          <mxGeometry relative="1" as="geometry">
            <Array as="points">
              <mxPoint x="440" y="820" />
              <mxPoint x="580" y="820" />
            </Array>
          </mxGeometry>
        </mxCell>
        <mxCell id="I5325HKkL8Ilov2h9OYY-37" style="edgeStyle=orthogonalEdgeStyle;rounded=0;orthogonalLoop=1;jettySize=auto;html=1;exitX=0.5;exitY=1;exitDx=0;exitDy=0;entryX=0.5;entryY=0;entryDx=0;entryDy=0;" edge="1" parent="1" source="I5325HKkL8Ilov2h9OYY-14" target="I5325HKkL8Ilov2h9OYY-2">
          <mxGeometry relative="1" as="geometry" />
        </mxCell>
        <mxCell id="I5325HKkL8Ilov2h9OYY-38" style="edgeStyle=orthogonalEdgeStyle;rounded=0;orthogonalLoop=1;jettySize=auto;html=1;exitX=0.5;exitY=1;exitDx=0;exitDy=0;" edge="1" parent="1" source="I5325HKkL8Ilov2h9OYY-14" target="I5325HKkL8Ilov2h9OYY-7">
          <mxGeometry relative="1" as="geometry">
            <Array as="points">
              <mxPoint x="440" y="820" />
              <mxPoint x="300" y="820" />
            </Array>
          </mxGeometry>
        </mxCell>
        <mxCell id="I5325HKkL8Ilov2h9OYY-14" value="存活" style="rounded=1;whiteSpace=wrap;html=1;" vertex="1" parent="1">
          <mxGeometry x="380" y="610" width="120" height="60" as="geometry" />
        </mxCell>
        <mxCell id="I5325HKkL8Ilov2h9OYY-33" style="edgeStyle=orthogonalEdgeStyle;rounded=0;orthogonalLoop=1;jettySize=auto;html=1;exitX=0.5;exitY=1;exitDx=0;exitDy=0;entryX=0.5;entryY=0;entryDx=0;entryDy=0;" edge="1" parent="1" source="I5325HKkL8Ilov2h9OYY-15" target="I5325HKkL8Ilov2h9OYY-32">
          <mxGeometry relative="1" as="geometry" />
        </mxCell>
        <mxCell id="I5325HKkL8Ilov2h9OYY-15" value="死亡" style="rounded=1;whiteSpace=wrap;html=1;" vertex="1" parent="1">
          <mxGeometry x="520" y="610" width="120" height="60" as="geometry" />
        </mxCell>
        <mxCell id="I5325HKkL8Ilov2h9OYY-34" style="edgeStyle=orthogonalEdgeStyle;rounded=0;orthogonalLoop=1;jettySize=auto;html=1;exitX=0.5;exitY=1;exitDx=0;exitDy=0;entryX=1;entryY=0.5;entryDx=0;entryDy=0;" edge="1" parent="1" source="I5325HKkL8Ilov2h9OYY-32" target="mDq2b6kobjIP6DSNH423-1">
          <mxGeometry relative="1" as="geometry">
            <Array as="points">
              <mxPoint x="580" y="780" />
              <mxPoint x="920" y="780" />
              <mxPoint x="920" y="70" />
            </Array>
          </mxGeometry>
        </mxCell>
        <mxCell id="I5325HKkL8Ilov2h9OYY-32" value="懲罰" style="rounded=1;whiteSpace=wrap;html=1;" vertex="1" parent="1">
          <mxGeometry x="520" y="700" width="120" height="60" as="geometry" />
        </mxCell>
        <mxCell id="I5325HKkL8Ilov2h9OYY-48" style="edgeStyle=orthogonalEdgeStyle;rounded=0;orthogonalLoop=1;jettySize=auto;html=1;exitX=0.5;exitY=1;exitDx=0;exitDy=0;entryX=0.5;entryY=0;entryDx=0;entryDy=0;" edge="1" parent="1" source="I5325HKkL8Ilov2h9OYY-39" target="I5325HKkL8Ilov2h9OYY-47">
          <mxGeometry relative="1" as="geometry" />
        </mxCell>
        <mxCell id="I5325HKkL8Ilov2h9OYY-39" value="存活" style="rounded=1;whiteSpace=wrap;html=1;" vertex="1" parent="1">
          <mxGeometry x="310" y="1010" width="120" height="60" as="geometry" />
        </mxCell>
        <mxCell id="I5325HKkL8Ilov2h9OYY-46" style="edgeStyle=orthogonalEdgeStyle;rounded=0;orthogonalLoop=1;jettySize=auto;html=1;exitX=0.5;exitY=1;exitDx=0;exitDy=0;entryX=0.5;entryY=0;entryDx=0;entryDy=0;" edge="1" parent="1" source="I5325HKkL8Ilov2h9OYY-40" target="I5325HKkL8Ilov2h9OYY-2">
          <mxGeometry relative="1" as="geometry">
            <Array as="points">
              <mxPoint x="510" y="1090" />
              <mxPoint x="670" y="1090" />
              <mxPoint x="670" y="800" />
              <mxPoint x="440" y="800" />
            </Array>
          </mxGeometry>
        </mxCell>
        <mxCell id="I5325HKkL8Ilov2h9OYY-40" value="死亡" style="rounded=1;whiteSpace=wrap;html=1;" vertex="1" parent="1">
          <mxGeometry x="450" y="1010" width="120" height="60" as="geometry" />
        </mxCell>
        <mxCell id="I5325HKkL8Ilov2h9OYY-47" value="離開冒險" style="rounded=1;whiteSpace=wrap;html=1;" vertex="1" parent="1">
          <mxGeometry x="310" y="1109" width="120" height="60" as="geometry" />
        </mxCell>
      </root>
    </mxGraphModel>
  </diagram>
  <diagram id="mbthGxJWryHmn7ZCOPLU" name="新手教學">
    <mxGraphModel dx="1434" dy="758" grid="1" gridSize="10" guides="1" tooltips="1" connect="1" arrows="1" fold="1" page="1" pageScale="1" pageWidth="827" pageHeight="1169" math="0" shadow="0">
      <root>
        <mxCell id="0" />
        <mxCell id="1" parent="0" />
      </root>
    </mxGraphModel>
  </diagram>
  <diagram id="ar5XcsMPfvfpD_HWj_6x" name="總流程">
    <mxGraphModel dx="1434" dy="758" grid="1" gridSize="10" guides="1" tooltips="1" connect="1" arrows="1" fold="1" page="1" pageScale="1" pageWidth="827" pageHeight="1169" math="0" shadow="0">
      <root>
        <mxCell id="0" />
        <mxCell id="1" parent="0" />
      </root>
    </mxGraphModel>
  </diagram>
</mxfile>
